<?xml version="1.0" encoding="utf-8"?>
<!-- Generator: Adobe Illustrator 25.2.1, SVG Export Plug-In . SVG Version: 6.00 Build 0)  -->
<svg version="1.1" id="PAPANAPA" xmlns="http://www.w3.org/2000/svg" xmlns:xlink="http://www.w3.org/1999/xlink" x="0px" y="0px"
	 viewBox="0 0 380 380" style="enable-background:new 0 0 380 380;" xml:space="preserve">
<path d="M243.1,201.8H267c-5.8,37.3-38.1,65.9-77,65.9s-71.2-28.6-77-65.9h23.9c5.5,24.2,27.2,42.4,53.1,42.4S237.6,226,243.1,201.8
	z M124.6,170.9c6.5,0,11.7-5.3,11.7-11.7s-5.3-11.7-11.7-11.7c-6.5,0-11.7,5.3-11.7,11.7S118.1,170.9,124.6,170.9z M255.4,147.5
	c-6.5,0-11.7,5.3-11.7,11.7c0,6.5,5.3,11.7,11.7,11.7s11.7-5.3,11.7-11.7C267.2,152.7,261.9,147.5,255.4,147.5z M323.8,190
	c0,73.9-59.9,133.8-133.8,133.8S56.2,263.9,56.2,190S116.1,56.2,190,56.2S323.8,116.1,323.8,190z M300.3,190
	c0-60.6-48.9-109.8-109.4-110.3l29.2,122h-59.9v-23.5h30l-23-96.2c-50.1,10.4-87.7,54.8-87.7,108c0,60.9,49.4,110.3,110.3,110.3
	S300.3,250.9,300.3,190z"/>
</svg>
